<?xml version="1.0" encoding="UTF-8"?>
<svg id="Layer_1" data-name="Layer 1" xmlns="http://www.w3.org/2000/svg" width="573.22" height="644.11" viewBox="0 0 573.22 644.11">
  <defs>
    <style>
      .cls-1 {
        fill: #005984;
      }

      .cls-2 {
        fill: #00a4e4;
      }

      .cls-3 {
        fill: #f8971d;
      }

      .cls-4 {
        fill: #efd6bd;
      }

      .cls-5 {
        fill: #90492d;
      }

      .cls-6 {
        fill: #9fa617;
      }

      .cls-7 {
        fill: #4f6f19;
      }

      .cls-8 {
        fill: #fff;
      }

      .cls-9 {
        fill: #ade0ee;
      }

      .cls-10 {
        fill: #f4e2cf;
      }
    </style>
  </defs>
  <rect x="329.5" y="276.81" width="11.76" height="11.76"/>
  <polygon class="cls-8" points="305.98 217.99 294.21 217.99 294.21 229.75 305.98 229.75 317.74 229.75 317.74 217.99 305.98 217.99"/>
  <polygon class="cls-3" points="317.74 347.48 305.98 347.48 294.21 347.48 282.45 347.48 282.45 359.25 294.21 359.25 294.21 371.01 294.21 382.77 294.21 394.54 294.21 406.39 294.21 418.15 294.21 429.92 294.21 441.68 305.98 441.68 317.74 441.68 317.74 429.92 317.74 418.15 317.74 406.39 317.74 394.54 317.74 382.77 317.74 371.01 317.74 359.25 329.5 359.25 329.5 347.48 317.74 347.48"/>
  <path class="cls-9" d="M317.74,206.13h-35.29v35.38h47.06v-35.38h-11.76ZM317.74,229.75h-23.53v-11.76h23.53v11.76Z"/>
  <rect x="270.68" y="276.81" width="11.76" height="11.76"/>
  <g>
    <polygon class="cls-6" points="341.27 441.68 329.5 441.68 317.74 441.68 305.98 441.68 294.21 441.68 282.45 441.68 270.68 441.68 258.83 441.68 258.83 453.45 258.83 465.21 258.83 476.97 270.68 476.97 282.45 476.97 294.21 476.97 294.21 465.21 305.98 465.21 317.74 465.21 317.74 476.97 329.5 476.97 341.27 476.97 353.03 476.97 353.03 465.21 353.03 453.45 353.03 441.68 341.27 441.68"/>
    <polygon class="cls-6" points="329.5 500.59 329.5 512.36 341.27 512.36 353.03 512.36 353.03 500.59 341.27 500.59 329.5 500.59"/>
    <polygon class="cls-6" points="258.83 500.59 258.83 512.36 270.68 512.36 282.45 512.36 282.45 500.59 270.68 500.59 258.83 500.59"/>
  </g>
  <g>
    <polygon class="cls-4" points="364.89 418.15 353.03 418.15 353.03 429.92 353.03 441.68 364.89 441.68 376.65 441.68 376.65 429.92 376.65 418.15 364.89 418.15"/>
    <polygon class="cls-4" points="235.3 418.15 235.3 429.92 235.3 441.68 247.07 441.68 258.83 441.68 258.83 429.92 258.83 418.15 247.07 418.15 235.3 418.15"/>
  </g>
  <g>
    <polygon class="cls-7" points="364.89 347.48 353.03 347.48 341.27 347.48 329.5 347.48 329.5 359.25 317.74 359.25 317.74 371.01 317.74 382.77 317.74 394.54 317.74 406.39 317.74 418.15 317.74 429.92 317.74 441.68 329.5 441.68 341.27 441.68 353.03 441.68 353.03 429.92 353.03 418.15 353.03 406.39 353.03 394.54 353.03 382.77 364.89 382.77 376.65 382.77 376.65 371.01 376.65 359.25 376.65 347.48 364.89 347.48"/>
    <polygon class="cls-7" points="341.27 512.36 329.5 512.36 329.5 524.12 341.27 524.12 353.03 524.12 364.89 524.12 364.89 512.36 353.03 512.36 341.27 512.36"/>
    <polygon class="cls-7" points="282.45 347.48 270.68 347.48 258.83 347.48 247.07 347.48 235.3 347.48 235.3 359.25 235.3 371.01 235.3 382.77 247.07 382.77 258.83 382.77 258.83 394.54 258.83 406.39 258.83 418.15 258.83 429.92 258.83 441.68 270.68 441.68 282.45 441.68 294.21 441.68 294.21 429.92 294.21 418.15 294.21 406.39 294.21 394.54 294.21 382.77 294.21 371.01 294.21 359.25 282.45 359.25 282.45 347.48"/>
    <polygon class="cls-7" points="258.83 512.36 247.07 512.36 247.07 524.12 258.83 524.12 270.68 524.12 282.45 524.12 282.45 512.36 270.68 512.36 258.83 512.36"/>
  </g>
  <g>
    <path class="cls-10" d="M364.89,276.81v-11.76h-117.82v11.76h-11.76v23.53h11.76v23.62h11.77v11.76h23.61v11.76h47.06v-11.76h23.53v-11.76h11.85v-23.62h11.76v-23.53h-11.76ZM341.27,276.81v11.76h-11.76v-11.76h11.76ZM282.45,276.81v11.76h-11.76v-11.76h11.76Z"/>
    <polygon class="cls-10" points="353.03 382.77 353.03 394.54 353.03 406.39 353.03 418.15 364.89 418.15 376.65 418.15 376.65 406.39 376.65 394.54 376.65 382.77 364.89 382.77 353.03 382.77"/>
    <polygon class="cls-10" points="329.5 476.97 329.5 488.74 329.5 500.59 341.27 500.59 353.03 500.59 353.03 488.74 353.03 476.97 341.27 476.97 329.5 476.97"/>
    <polygon class="cls-10" points="258.83 476.97 258.83 488.74 258.83 500.59 270.68 500.59 282.45 500.59 282.45 488.74 282.45 476.97 270.68 476.97 258.83 476.97"/>
    <polygon class="cls-10" points="258.83 406.39 258.83 394.54 258.83 382.77 247.07 382.77 235.3 382.77 235.3 394.54 235.3 406.39 235.3 418.15 247.07 418.15 258.83 418.15 258.83 406.39"/>
  </g>
  <polygon class="cls-2" points="364.89 241.52 353.03 241.52 341.27 241.52 329.5 241.52 317.74 241.52 305.98 241.52 294.21 241.52 282.45 241.52 270.68 241.52 258.83 241.52 247.07 241.52 235.3 241.52 235.3 253.28 247.07 253.28 247.07 265.05 258.83 265.05 270.68 265.05 282.45 265.05 294.21 265.05 305.98 265.05 317.74 265.05 329.5 265.05 341.27 265.05 353.03 265.05 364.89 265.05 364.89 253.28 376.65 253.28 376.65 241.52 364.89 241.52"/>
  <polygon class="cls-1" points="364.89 206.13 364.89 194.37 353.03 194.37 341.27 194.37 341.27 182.61 329.5 182.61 317.74 182.61 305.98 182.61 294.21 182.61 282.45 182.61 270.68 182.61 270.68 194.37 258.83 194.37 247.07 194.37 247.07 206.13 235.3 206.13 235.3 217.99 235.3 229.75 235.3 241.52 247.07 241.52 258.83 241.52 270.68 241.52 282.45 241.52 282.45 229.75 282.45 217.99 282.45 206.13 294.21 206.13 305.98 206.13 317.74 206.13 329.5 206.13 329.5 217.99 329.5 229.75 329.5 241.52 341.27 241.52 353.03 241.52 364.89 241.52 376.65 241.52 376.65 229.75 376.65 217.99 376.65 206.13 364.89 206.13"/>
  <g>
    <polygon class="cls-5" points="388.41 253.28 388.41 241.52 376.65 241.52 376.65 253.28 364.89 253.28 364.89 265.05 364.89 276.81 376.65 276.81 376.65 288.57 376.65 300.34 364.89 300.34 364.89 312.19 364.89 323.96 353.03 323.96 353.03 335.72 341.27 335.72 329.5 335.72 329.5 347.48 341.27 347.48 353.03 347.48 364.89 347.48 376.65 347.48 376.65 359.25 388.41 359.25 388.41 347.48 388.41 335.72 400.18 335.72 400.18 323.96 400.18 312.19 400.18 300.34 400.18 288.57 400.18 276.81 400.18 265.05 400.18 253.28 388.41 253.28"/>
    <polygon class="cls-5" points="258.83 335.72 258.83 323.96 247.07 323.96 247.07 312.19 247.07 300.34 235.3 300.34 235.3 288.57 235.3 276.81 247.07 276.81 247.07 265.05 247.07 253.28 235.3 253.28 235.3 241.52 223.54 241.52 223.54 253.28 211.77 253.28 211.77 265.05 211.77 276.81 211.77 288.57 211.77 300.34 211.77 312.19 211.77 323.96 211.77 335.72 223.54 335.72 223.54 347.48 223.54 359.25 235.3 359.25 235.3 347.48 247.07 347.48 258.83 347.48 270.68 347.48 282.45 347.48 282.45 335.72 270.68 335.72 258.83 335.72"/>
  </g>
</svg>